<!DOCTYPE svg PUBLIC "-//W3C//DTD SVG 1.1//EN" "http://www.w3.org/Graphics/SVG/1.1/DTD/svg11.dtd">
<!-- Uploaded to: SVG Repo, www.svgrepo.com, Transformed by: SVG Repo Mixer Tools -->
<svg fill="#ffffff" width="800px" height="800px" viewBox="0 0 24 24" id="file-zip-3" data-name="Flat Color" xmlns="http://www.w3.org/2000/svg" class="icon flat-color" stroke="#ffffff">
<g id="SVGRepo_bgCarrier" stroke-width="0"/>
<g id="SVGRepo_tracerCarrier" stroke-linecap="round" stroke-linejoin="round"/>
<g id="SVGRepo_iconCarrier">
<path id="primary" d="M19.71,6.29l-4-4A1,1,0,0,0,15,2H6A2,2,0,0,0,4,4V20a2,2,0,0,0,2,2H18a2,2,0,0,0,2-2V7A1,1,0,0,0,19.71,6.29Z" style="fill: #000000;"/>
<path id="secondary" d="M11,5a1,1,0,0,0-1-1V2H8V4A1,1,0,0,0,8,6V8a1,1,0,0,0,0,2v1a1,1,0,0,0,2,0V10a1,1,0,0,0,0-2V6A1,1,0,0,0,11,5Z" style="fill: #2ca9bc;"/>
</g>
</svg>